<svg xmlns="http://www.w3.org/2000/svg" width="164.304" height="60.191" viewBox="0 0 164.304 60.191">
  <g id="Group_194" data-name="Group 194" transform="translate(-877.999 -78.983)">
    <path id="Subtraction_1" data-name="Subtraction 1" d="M-9543.73-3672.741h-.178a29.916,29.916,0,0,1-11.715-2.365,30.011,30.011,0,0,1-9.567-6.449,29.987,29.987,0,0,1-6.449-9.566,29.911,29.911,0,0,1-2.365-11.715,29.914,29.914,0,0,1,2.365-11.715,30,30,0,0,1,6.449-9.566,30.01,30.01,0,0,1,9.567-6.45,29.912,29.912,0,0,1,11.715-2.365h.178a29.9,29.9,0,0,1,11.714,2.365,30,30,0,0,1,9.566,6.45,30,30,0,0,1,6.449,9.566,29.914,29.914,0,0,1,2.365,11.715,29.911,29.911,0,0,1-2.365,11.715,29.987,29.987,0,0,1-6.449,9.566,30.006,30.006,0,0,1-9.566,6.449A29.908,29.908,0,0,1-9543.73-3672.741Zm-2.105-20.624a3.177,3.177,0,0,0-2.258.935,3.322,3.322,0,0,0,0,4.693l1.925,1.922a.34.34,0,0,0,.243.1.337.337,0,0,0,.24-.1l2.1-2.1a3.169,3.169,0,0,0,.936-2.257,3.163,3.163,0,0,0-.936-2.255A3.167,3.167,0,0,0-9545.836-3693.365Zm4.964-6.488h0c-.091.1-.179.206-.263.317a4.062,4.062,0,0,0-.808,2.439,4.072,4.072,0,0,0,.916,2.573l.3.332a.038.038,0,0,0,.017.012,2.5,2.5,0,0,0,1.7.658,2.53,2.53,0,0,0,1.682-.639l3.513-3.513,1-1c.154-.144.306-.3.464-.464a10.565,10.565,0,0,0,2.881-7.271,10.628,10.628,0,0,0-10.615-10.618,10.579,10.579,0,0,0-7.288,2.9l-.437.435-1.346,1.348-2.989,2.989-.183.183-.11.125a2.534,2.534,0,0,0,.418,3.552l.064.05a.01.01,0,0,0,.008,0,4.084,4.084,0,0,0,2.544.891,4.058,4.058,0,0,0,2.437-.8,4.439,4.439,0,0,0,.342-.286l.014-.012c.056-.051.106-.1.157-.156l.028-.029,0-.007.007,0,.373-.373.653-.653,2.364-2.365a4.048,4.048,0,0,1,2.936-1.245,4.064,4.064,0,0,1,2.838,1.147,4.09,4.09,0,0,1,.1,5.774l-.1.1-1.523,1.521-.5.5-.74.74-.637.637-.006.006,0,0c-.059.054-.117.115-.168.168l0,0Zm-15.428-4.235a3.167,3.167,0,0,0-2.255.935l-2.105,2.1a.349.349,0,0,0,0,.485l1.923,1.925a3.3,3.3,0,0,0,2.347.971,3.293,3.293,0,0,0,2.346-.971,3.171,3.171,0,0,0,.936-2.258,3.168,3.168,0,0,0-.936-2.254A3.167,3.167,0,0,0-9556.3-3704.088Z" transform="translate(10452.004 3811.915)" fill="#3d155f"/>
    <text id="Snazzy" transform="translate(951.303 114.34)" fill="#3d155f" font-size="29" font-family="Quentin_Pro-Regular, Quentin_Pro" letter-spacing="0.035em"><tspan x="0" y="0">Snazzy</tspan></text>
  </g>
</svg>
